<?xml version="1.0" standalone="no"?>
<!DOCTYPE svg PUBLIC "-//W3C//DTD SVG 20010904//EN"
 "http://www.w3.org/TR/2001/REC-SVG-20010904/DTD/svg10.dtd">
<svg version="1.0" xmlns="http://www.w3.org/2000/svg"
 width="346.000000pt" height="338.000000pt" viewBox="0 0 346.000000 338.000000"
 preserveAspectRatio="xMidYMid meet">

<g transform="translate(0.000000,338.000000) scale(0.100000,-0.100000)"
fill="#000000" stroke="none">
<path d="M1660 3164 c-99 -17 -182 -40 -228 -63 -39 -20 -132 -103 -132 -118
0 -4 -13 -14 -29 -21 -16 -7 -36 -28 -46 -50 -10 -20 -28 -57 -40 -82 -50
-100 -73 -250 -53 -345 3 -16 11 -61 17 -100 7 -38 19 -95 27 -125 9 -30 18
-63 20 -72 3 -11 -2 -17 -18 -20 -21 -3 -23 -9 -26 -61 -2 -31 1 -90 7 -130 8
-61 15 -76 41 -99 18 -17 42 -28 59 -28 23 0 30 -5 36 -27 3 -15 21 -65 40
-112 27 -69 35 -108 42 -201 l9 -115 -39 -58 c-46 -67 -119 -119 -217 -152
-36 -12 -109 -43 -162 -68 -54 -25 -141 -60 -195 -77 -124 -40 -186 -72 -210
-107 -21 -31 -58 -121 -69 -168 -4 -16 -22 -62 -41 -101 -18 -40 -33 -85 -33
-100 0 -14 -14 -50 -30 -79 -17 -29 -39 -86 -50 -126 -11 -41 -28 -101 -39
-134 -30 -90 -61 -200 -61 -213 0 -9 370 -12 1565 -12 1344 0 1565 2 1565 14
0 8 -21 83 -46 166 -25 84 -54 182 -64 219 -10 36 -25 84 -33 106 -8 22 -23
87 -32 145 -10 58 -24 117 -31 132 -23 44 -260 172 -504 271 -169 69 -235 100
-282 132 -47 31 -126 113 -181 187 -15 21 -36 42 -47 48 -18 10 -18 9 -3 -36
22 -65 13 -145 -27 -230 -33 -71 -83 -265 -74 -289 8 -20 -106 -392 -191 -625
-31 -84 -38 -95 -60 -95 -28 0 -28 1 -45 326 -6 126 -16 227 -26 258 -10 36
-12 56 -5 70 12 21 111 107 111 96 0 -4 6 -2 14 4 11 9 15 9 19 -1 3 -9 8 -10
16 -3 6 6 29 9 51 7 32 -3 40 -8 40 -24 0 -15 5 -18 16 -14 9 4 23 1 30 -5 31
-26 10 11 -42 74 -30 37 -76 79 -101 94 -44 25 -46 26 -77 9 -27 -15 -26 -13
9 16 115 95 327 328 298 328 -5 0 -7 64 -5 142 l3 143 -25 -24 c-32 -30 -32
-27 -1 41 17 37 26 79 30 133 5 77 10 114 38 276 7 42 10 88 6 102 -4 15 -3
27 2 27 5 0 9 10 9 23 0 31 11 67 20 67 13 0 22 -32 30 -115 4 -44 11 -91 14
-105 5 -21 5 -21 -3 -5 -8 19 -9 19 -19 -6 -6 -14 -13 -48 -17 -75 -4 -27 -9
-56 -11 -65 -4 -13 2 -15 32 -10 67 11 86 58 87 217 1 65 -3 85 -16 99 -10 9
-24 15 -32 12 -9 -4 -16 4 -20 24 -4 16 -10 29 -15 29 -15 0 -30 63 -35 149
-4 71 -3 80 6 52 6 -19 8 -43 6 -53 -3 -10 -2 -16 3 -13 4 3 11 -15 14 -40 4
-24 11 -47 16 -50 4 -3 6 -14 3 -24 -3 -10 0 -22 5 -25 7 -4 13 11 16 36 3 24
8 63 11 88 3 25 8 68 11 95 4 28 6 61 5 75 -2 14 -3 32 -3 40 -1 8 -5 21 -11
28 -5 6 -6 12 -3 12 4 0 0 10 -8 21 -8 12 -12 28 -9 35 3 8 1 14 -4 14 -16 0
-21 65 -8 95 8 19 8 19 -9 3 -19 -20 -31 -24 -21 -7 21 33 -35 179 -57 148 -8
-12 -9 -11 -5 1 3 9 0 22 -7 31 -22 29 -146 114 -131 90 9 -16 -7 -13 -33 5
-12 8 -20 19 -17 24 3 5 -3 9 -12 9 -24 1 -175 20 -188 24 -5 2 -44 -2 -85 -9z
m520 -237 c0 -6 -9 0 -20 13 -11 13 -20 25 -20 28 0 3 9 -3 20 -13 11 -10 20
-23 20 -28z m-10 -527 c0 -5 -4 -10 -10 -10 -5 0 -10 5 -10 10 0 6 5 10 10 10
6 0 10 -4 10 -10z m87 -392 c-3 -8 -6 -5 -6 6 -1 11 2 17 5 13 3 -3 4 -12 1
-19z m-297 -347 c-13 -25 -29 -28 -26 -5 2 15 27 36 34 29 2 -2 -1 -13 -8 -24z
m-523 -389 c48 -101 128 -196 187 -223 l41 -18 -37 0 c-28 -1 -41 5 -50 19 -7
11 -19 20 -26 20 -26 0 -74 -43 -104 -92 -17 -27 -32 -47 -35 -45 -17 18 -42
427 -25 427 4 -1 26 -40 49 -88z m126 -450 c23 -58 21 -87 -9 -184 -15 -46
-35 -128 -44 -183 l-17 -100 -21 67 c-33 104 -52 209 -59 325 -4 76 -3 104 5
99 6 -3 14 -1 17 5 4 5 13 8 21 5 9 -4 14 2 14 16 0 16 3 18 14 9 10 -9 16 -8
26 4 11 14 14 14 25 -2 6 -10 19 -37 28 -61z"/>
</g>
</svg>
